<mxfile host="app.diagrams.net" modified="2023-02-14T01:49:06.963Z" agent="5.0 (Windows NT 10.0; Win64; x64) AppleWebKit/537.36 (KHTML, like Gecko) Chrome/110.0.0.0 Safari/537.36" etag="oad1hBCms6hTiUDhI0BE" version="20.8.13" type="github">
  <diagram name="第 1 页" id="z6RlVXseE-h6Gzdh8Yi2">
    <mxGraphModel dx="1377" dy="649" grid="1" gridSize="10" guides="1" tooltips="1" connect="1" arrows="1" fold="1" page="0" pageScale="1" pageWidth="827" pageHeight="1169" math="0" shadow="0">
      <root>
        <mxCell id="0" />
        <mxCell id="1" parent="0" />
        <mxCell id="8mNMRbjJEbMMUTo-WJ8x-2" value="" style="ellipse;whiteSpace=wrap;html=1;fontSize=16;" vertex="1" parent="1">
          <mxGeometry x="-40" y="60" width="120" height="80" as="geometry" />
        </mxCell>
      </root>
    </mxGraphModel>
  </diagram>
</mxfile>
